HIERARCHY
ROOT Hips
{
	OFFSET -0.001795 -0.223333 0.028219
	CHANNELS 6 Xposition Yposition Zposition Zrotation Yrotation Xrotation 
	JOINT LeftUpLeg
	{
		OFFSET 0.069520 -0.091406 -0.006815
		CHANNELS 3 Zrotation Yrotation Xrotation
		JOINT LeftLeg
		{
			OFFSET 0.034277 -0.375199 -0.004496
			CHANNELS 3 Zrotation Yrotation Xrotation
			JOINT LeftFoot
			{
				OFFSET -0.013596 -0.397961 -0.043693
				CHANNELS 3 Zrotation Yrotation Xrotation
				JOINT LeftToe
				{
					OFFSET 0.026358 -0.055791 0.119288
					CHANNELS 3 Zrotation Yrotation Xrotation
					End Site
					{
						OFFSET 0.000000 0.000000 0.000000
					}
				}
			}
		}
	}
	JOINT RightUpLeg
	{
		OFFSET -0.067670 -0.090522 -0.004320
		CHANNELS 3 Zrotation Yrotation Xrotation
		JOINT RightLeg
		{
			OFFSET -0.038290 -0.382569 -0.008850
			CHANNELS 3 Zrotation Yrotation Xrotation
			JOINT RightFoot
			{
				OFFSET 0.015774 -0.398415 -0.042312
				CHANNELS 3 Zrotation Yrotation Xrotation
				JOINT RightToe
				{
					OFFSET -0.025372 -0.048144 0.123348
					CHANNELS 3 Zrotation Yrotation Xrotation
					End Site
					{
						OFFSET 0.000000 0.000000 0.000000
					}
				}
			}
		}
	}
	JOINT Spine
	{
		OFFSET -0.002533 0.108963 -0.026696
		CHANNELS 3 Zrotation Yrotation Xrotation
		JOINT Spine1
		{
			OFFSET 0.005487 0.135180 0.001092
			CHANNELS 3 Zrotation Yrotation Xrotation
			JOINT Spine2
			{
				OFFSET 0.001457 0.052922 0.025425
				CHANNELS 3 Zrotation Yrotation Xrotation
				JOINT Neck
				{
					OFFSET -0.002778 0.213870 -0.042857
					CHANNELS 3 Zrotation Yrotation Xrotation
					JOINT Head
					{
						OFFSET 0.005152 0.064970 0.051349
						CHANNELS 3 Zrotation Yrotation Xrotation
						End Site
						{
							OFFSET 0.000000 0.000000 0.000000
						}
					}
				}
				JOINT LeftShoulder
				{
					OFFSET 0.078845 0.121749 -0.034090
					CHANNELS 3 Zrotation Yrotation Xrotation
					JOINT LeftArm
					{
						OFFSET 0.090977 0.030469 -0.008868
						CHANNELS 3 Zrotation Yrotation Xrotation
						JOINT LeftForeArm
						{
							OFFSET 0.259612 -0.012772 -0.027456
							CHANNELS 3 Zrotation Yrotation Xrotation
							JOINT LeftHand
							{
								OFFSET 0.249234 0.008986 -0.001171
								CHANNELS 3 Zrotation Yrotation Xrotation
								End Site
								{
									OFFSET 0.000000 0.000000 0.000000
								}
							}
						}
					}
				}
				JOINT RightShoulder
				{
					OFFSET -0.081759 0.118833 -0.038615
					CHANNELS 3 Zrotation Yrotation Xrotation
					JOINT RightArm
					{
						OFFSET -0.096012 0.032551 -0.009143
						CHANNELS 3 Zrotation Yrotation Xrotation
						JOINT RightForeArm
						{
							OFFSET -0.253742 -0.013329 -0.021401
							CHANNELS 3 Zrotation Yrotation Xrotation
							JOINT RightHand
							{
								OFFSET -0.255298 0.007772 -0.005559
								CHANNELS 3 Zrotation Yrotation Xrotation
								End Site
								{
									OFFSET 0.000000 0.000000 0.000000
								}
							}
						}
					}
				}
			}
		}
	}
}
MOTION
Frames: 16
Frame Time: 0.050000
0.048386 0.954834 0.264323 1.655769 -8.340826 7.835930 7.804608 -0.305018 -12.441528 2.157125 -0.106610 -2.927457 -0.833121 3.431098 16.883887 0.000000 0.000000 0.000000 -0.938897 0.967599 -9.856814 1.643420 -0.104638 1.158980 -4.891200 -14.127303 7.657072 0.000000 0.000000 0.000000 1.137565 -0.174525 2.714669 2.738725 -1.199594 -1.490200 -0.916421 0.046218 8.248769 2.127398 -1.198152 -8.136516 0.000000 0.000000 0.000000 -11.257012 -1.596323 0.385956 -54.302932 -4.970614 -4.407306 -120.914644 -48.221217 85.595535 0.000000 0.000000 0.000000 3.224967 2.202473 0.369045 46.727957 -8.869819 -8.025703 130.297021 40.275522 75.709981 0.000000 0.000000 0.000000 
0.047460 0.955094 0.259720 1.762114 -7.565989 8.169816 7.570212 -0.356195 -12.332224 2.195162 -0.067459 -3.638630 -1.035704 3.392687 17.452234 0.000000 0.000000 0.000000 -0.754305 1.011075 -10.240905 1.642646 -0.118736 0.768319 -5.085231 -14.565808 8.099944 0.000000 0.000000 0.000000 1.420163 -0.189287 2.628101 2.496283 -1.088502 -1.522833 -0.619995 1.015537 8.186391 2.303756 -1.206119 -8.444879 0.000000 0.000000 0.000000 -11.478670 -2.335601 0.527922 -54.327771 -5.114915 -4.374497 -121.101045 -48.425300 85.124239 0.000000 0.000000 0.000000 3.243800 1.837562 0.297081 45.718154 -9.431082 -7.964926 132.782198 40.155172 80.098423 0.000000 0.000000 0.000000 
0.047874 0.954572 0.257121 1.833188 -6.993794 8.116671 7.397203 -0.381593 -11.790206 2.338428 -0.032275 -4.418263 -1.525955 2.817459 17.702313 0.000000 0.000000 0.000000 -0.477087 1.003765 -10.101658 1.314476 -0.104781 0.300564 -5.213099 -14.843539 8.442095 0.000000 0.000000 0.000000 1.580357 -0.192988 2.515612 2.567372 -1.118016 -1.605539 -0.636042 1.143514 8.522735 2.291894 -1.157501 -8.628803 0.000000 0.000000 0.000000 -11.327121 -1.603944 0.131618 -54.409264 -4.803096 -4.547131 -121.053700 -49.949918 86.773965 0.000000 0.000000 0.000000 3.258225 1.975422 0.369293 45.142601 -9.285802 -7.804077 135.808421 40.125332 84.901987 0.000000 0.000000 0.000000 
0.049625 0.953787 0.255843 1.852545 -6.888664 8.357377 7.261892 -0.394689 -11.381708 2.740321 0.013667 -5.631355 -1.880853 2.495839 18.389078 0.000000 0.000000 0.000000 -0.398997 1.042217 -10.441997 1.078677 -0.090146 0.103929 -5.520905 -15.462925 8.606162 0.000000 0.000000 0.000000 1.703458 -0.185055 2.206992 2.607723 -1.139209 -1.471077 -0.452405 1.859321 8.811958 3.114984 -1.570407 -9.825739 0.000000 0.000000 0.000000 -11.382846 -1.224698 -0.151537 -54.359835 -4.434738 -4.750404 -119.905031 -52.157080 87.693858 0.000000 0.000000 0.000000 3.556539 1.674768 0.268116 44.875465 -8.337088 -7.421121 138.887857 40.466934 91.074289 0.000000 0.000000 0.000000 
0.052735 0.953265 0.255244 1.837977 -7.065984 8.469385 7.078386 -0.399920 -10.962728 3.117031 0.028266 -6.224480 -1.633637 2.811621 18.327995 0.000000 0.000000 0.000000 -0.105904 1.069452 -10.594249 0.319405 -0.024223 0.068511 -5.790761 -16.007661 8.694478 0.000000 0.000000 0.000000 1.497652 -0.179092 2.318195 2.868951 -1.253255 -1.532033 -0.020879 2.267464 9.069444 2.942385 -1.306307 -11.151240 0.000000 0.000000 0.000000 -11.089352 -0.411274 -0.544567 -54.664117 -3.800618 -5.067194 -120.754975 -54.843170 91.904638 0.000000 0.000000 0.000000 3.973949 2.114124 0.414822 46.088199 -6.288881 -6.932362 142.328842 41.422391 98.828498 0.000000 0.000000 0.000000 
0.057386 0.952436 0.254448 1.935571 -7.397544 8.940805 6.934258 -0.410664 -10.880446 2.963233 0.078301 -6.840369 -1.188124 3.378455 18.207013 0.000000 0.000000 0.000000 -0.214603 1.142817 -11.294775 0.075286 -0.008087 -0.069849 -6.317393 -17.044099 8.757592 0.000000 0.000000 0.000000 1.160138 -0.137058 1.838267 3.241093 -1.430421 -1.122232 0.268421 3.158400 9.270276 3.061898 -1.199103 -12.432267 0.000000 0.000000 0.000000 -10.820612 0.192382 -0.897131 -54.067125 -3.689493 -5.093538 -122.965238 -57.913840 97.893968 0.000000 0.000000 0.000000 4.453310 3.355517 0.906459 47.233896 -3.279239 -6.016657 145.974076 44.033041 110.252906 0.000000 0.000000 0.000000 
0.063751 0.953038 0.252902 2.189862 -8.263861 9.198468 6.438849 -0.437941 -10.808948 2.650844 0.131211 -7.409617 -0.241701 4.734328 18.613668 0.000000 0.000000 0.000000 -0.620174 1.198583 -11.931275 0.029463 -0.006177 -0.129031 -6.578994 -17.593931 8.768520 0.000000 0.000000 0.000000 0.991029 -0.145835 2.217727 2.945335 -1.313956 -0.504008 0.857588 3.879017 8.548519 2.567703 -0.706990 -13.890823 0.000000 0.000000 0.000000 -10.334404 -0.395662 -0.635883 -54.448980 -4.490542 -4.691322 -126.388095 -62.318417 107.006054 0.000000 0.000000 0.000000 5.270869 5.814842 1.848229 48.837181 1.578310 -4.300166 150.030357 49.401073 125.045462 0.000000 0.000000 0.000000 
0.071695 0.953819 0.250022 2.658401 -8.788899 9.387473 6.048568 -0.461627 -10.609491 1.939668 0.231070 -8.427264 -0.160030 4.864823 19.017132 0.000000 0.000000 0.000000 -1.340905 1.205575 -12.261112 0.053325 -0.034578 -0.791137 -6.997042 -18.402918 8.792291 0.000000 0.000000 0.000000 0.524432 -0.127956 2.479985 3.194721 -1.444975 0.202669 1.043545 4.662290 7.573125 2.277936 -0.316671 -15.454760 0.000000 0.000000 0.000000 -9.861282 -2.664865 0.322893 -53.569887 -7.561916 -3.182554 -132.573986 -69.283988 121.454523 0.000000 0.000000 0.000000 6.114597 9.513169 3.382628 49.796320 8.688864 -1.447537 154.841417 59.750070 143.698897 0.000000 0.000000 0.000000 
0.080813 0.954662 0.245926 3.006787 -9.645046 9.344265 5.258369 -0.519624 -10.851200 1.745610 0.232360 -8.312876 0.331292 5.371062 18.668047 0.000000 0.000000 0.000000 -2.512370 1.208226 -12.720426 0.802629 -0.096023 -0.974391 -7.145580 -18.709700 8.716352 0.000000 0.000000 0.000000 0.702309 -0.187437 3.629146 2.701821 -1.227134 0.858991 1.520432 5.778205 6.406510 2.678734 -0.476199 -15.573343 0.000000 0.000000 0.000000 -9.285144 -7.276288 2.286018 -50.795296 -13.419288 -0.495773 -150.279343 -78.590947 149.725992 0.000000 0.000000 0.000000 6.723599 14.230884 5.445312 46.750136 17.533786 2.042597 176.331215 73.958479 -178.646451 0.000000 0.000000 0.000000 
0.090630 0.955268 0.241129 2.957141 -11.191942 9.229174 4.427467 -0.568834 -10.998690 2.680537 0.157002 -7.898142 0.679682 5.633781 18.709406 0.000000 0.000000 0.000000 -2.763016 1.265667 -13.269994 0.788942 -0.093464 -1.022380 -7.092132 -18.828712 9.548203 0.000000 0.000000 0.000000 1.190728 -0.259521 4.488916 2.205898 -0.990372 1.547513 1.939457 7.422305 5.425340 3.243420 -0.727378 -15.575819 0.000000 0.000000 0.000000 -10.558847 -13.458957 4.924004 -44.816650 -20.203764 2.039382 105.793772 -84.709822 -96.204111 0.000000 0.000000 0.000000 5.421029 20.808904 8.205088 43.526456 26.557945 5.151658 -89.496942 75.170806 -69.183211 0.000000 0.000000 0.000000 
0.100620 0.955742 0.236546 3.029187 -12.140597 9.419006 3.714639 -0.649266 -11.805462 2.447078 0.126551 -7.313868 1.473179 6.568153 18.259967 0.000000 0.000000 0.000000 -3.352753 1.315313 -13.926376 0.927438 -0.106620 -1.225866 -6.773890 -18.606706 11.238815 0.000000 0.000000 0.000000 1.449631 -0.322306 5.483680 1.673716 -0.724972 2.513357 2.787303 8.940361 3.693523 3.191566 -0.581021 -15.689223 0.000000 0.000000 0.000000 -9.448335 -18.954872 7.183366 -40.409777 -26.425431 3.927147 59.807408 -73.069704 -42.937676 0.000000 0.000000 0.000000 4.323393 26.980931 10.778170 33.421379 35.426455 6.057866 -51.621402 50.551298 -22.002924 0.000000 0.000000 0.000000 
0.110099 0.956442 0.233228 2.899220 -12.589605 9.229150 2.934214 -0.736774 -12.328602 2.967946 0.045134 -6.623129 2.002166 7.286084 18.277992 0.000000 0.000000 0.000000 -3.373104 1.369411 -14.448094 0.030227 -0.038681 -0.989819 -6.818591 -18.987879 12.901706 0.000000 0.000000 0.000000 1.825287 -0.422960 7.105866 1.413909 -0.587444 3.155779 2.941179 9.517283 1.914674 3.343944 -0.667394 -15.287771 0.000000 0.000000 0.000000 -9.425238 -23.634786 9.232120 -35.521369 -32.029290 5.014060 45.519136 -60.406353 -25.036652 0.000000 0.000000 0.000000 2.858485 32.538751 12.893193 20.917520 39.964527 3.773935 -37.383754 26.773427 -7.147453 0.000000 0.000000 0.000000 
0.118289 0.956177 0.231458 2.867637 -12.967836 9.655943 2.457816 -0.815106 -13.133366 2.637426 0.059174 -6.534218 2.046305 7.321553 18.461230 0.000000 0.000000 0.000000 -3.666027 1.417564 -15.003550 -0.123596 -0.039614 -1.278792 -6.408978 -18.442595 13.425050 0.000000 0.000000 0.000000 1.360602 -0.395069 7.675934 1.517158 -0.627395 3.213162 3.909346 9.495369 1.218487 3.108729 -0.666337 -14.334782 0.000000 0.000000 0.000000 -8.412102 -26.215425 10.372485 -34.114580 -35.442301 5.744556 39.903056 -52.765105 -18.244553 0.000000 0.000000 0.000000 0.221639 35.823234 13.520266 12.417062 41.466983 1.447545 -27.151106 13.850539 -2.196614 0.000000 0.000000 0.000000 
0.124487 0.956204 0.231139 2.690267 -12.633993 9.830179 2.011750 -0.888642 -13.589892 2.706262 0.062780 -6.627531 1.769235 6.824266 17.526359 0.000000 0.000000 0.000000 -3.574430 1.449707 -15.325222 -0.717484 0.002200 -1.215381 -6.190904 -18.171511 14.049285 0.000000 0.000000 0.000000 0.851686 -0.347554 7.900424 1.769480 -0.752429 3.895063 4.323847 8.375738 0.465384 3.701968 -1.267943 -12.859192 0.000000 0.000000 0.000000 -6.258449 -27.009268 10.568516 -34.508234 -36.710723 6.251666 39.316024 -50.571257 -16.892053 0.000000 0.000000 0.000000 -0.840634 37.016929 13.603710 9.589478 40.007633 0.497811 -24.935875 9.402175 -1.158924 0.000000 0.000000 0.000000 
0.128498 0.956305 0.231957 1.920332 -13.381268 10.427308 2.237595 -0.878385 -14.200126 2.983742 0.017359 -6.261813 0.994146 5.405385 16.768850 0.000000 0.000000 0.000000 -3.343144 1.515161 -15.690479 -0.309936 -0.033220 -1.413836 -5.750695 -17.490948 13.801210 0.000000 0.000000 0.000000 0.730121 -0.331651 7.872059 1.912789 -0.798632 4.133812 4.570576 7.854041 0.421623 4.140415 -1.743863 -11.666794 0.000000 0.000000 0.000000 -7.280847 -25.407455 10.173078 -35.705872 -35.207780 6.104778 39.266142 -56.895157 -19.115710 0.000000 0.000000 0.000000 0.532372 35.449248 13.275164 12.179136 37.839027 1.054157 -29.599576 14.142476 -2.548659 0.000000 0.000000 0.000000 
0.130509 0.956236 0.233988 1.369181 -13.954036 11.196472 2.476549 -0.868502 -15.012206 2.649693 0.009877 -5.845459 0.807790 4.849096 15.800441 0.000000 0.000000 0.000000 -3.252555 1.615798 -16.448501 0.188474 -0.051673 -1.092343 -5.281803 -16.782967 13.648927 0.000000 0.000000 0.000000 0.524466 -0.288298 7.194115 2.055155 -0.854439 3.689701 4.712326 6.881767 1.802952 4.081973 -1.677734 -12.950812 0.000000 0.000000 0.000000 -8.028704 -23.546219 9.691245 -38.442511 -31.991221 5.575319 41.373799 -65.540843 -23.661511 0.000000 0.000000 0.000000 1.368121 32.403673 12.064276 19.620792 33.746171 2.410325 -39.381059 24.036821 -6.976152 0.000000 0.000000 0.000000 
